<svg fill="#000000" version="1.1" id="Layer_1" xmlns="http://www.w3.org/2000/svg" viewBox="0 0 512.001 512.001">
          <g>
            <g>
              <path d="M473.213,201.613h-7.621c-2.468-41.795-24.856-80.421-63.68-109.466c-39.195-29.32-90.944-45.469-145.718-45.469
                c-54.778,0-106.531,16.148-145.729,45.469C71.639,121.19,49.25,159.816,46.782,201.613h-7.993
                c-12.852,0-23.272,10.42-23.272,23.272c0,12.852,10.42,23.272,23.272,23.272h434.425c12.852,0,23.272-10.42,23.272-23.272
                C496.485,212.033,486.065,201.613,473.213,201.613z"/>
            </g>
          </g>
          <g>
            <g>
              <path d="M510.799,310.573c-4.065-12.192-17.243-18.781-29.438-14.716c-10.997,3.666-19.684,6.561-39.181,6.561
                c-19.494,0-28.183-2.895-39.184-6.561c-1.145-0.382-2.313-0.768-3.495-1.156c-11.804-3.866-25.823-7.796-50.409-7.796h-0.002
                h-0.002c-24.589,0-38.607,3.93-50.411,7.796c-1.184,0.388-2.352,0.774-3.497,1.156c-10.998,3.666-19.685,6.561-39.178,6.561
                c-19.497,0-28.187-2.895-39.189-6.563c-1.145-0.382-2.312-0.766-3.494-1.154c-11.802-3.866-25.821-7.795-50.406-7.796h-0.002
                c-0.002,0-0.002,0-0.002,0c-24.588,0.002-38.605,3.93-50.408,7.796c-1.184,0.388-2.352,0.774-3.497,1.156
                c-11,3.666-19.687,6.561-39.181,6.561c-19.497,0-28.187-2.895-39.189-6.561c-12.191-4.066-25.373,2.526-29.438,14.717
                c-4.062,12.195,2.529,25.374,14.722,29.438c8.372,2.791,17.51,5.821,30.635,7.543v16.925
                c0.002,55.605,45.241,100.843,100.846,100.843H364.61c55.605,0,100.844-45.238,100.846-100.844v-16.925
                c13.122-1.721,22.259-4.752,30.628-7.542C508.276,335.948,514.867,322.768,510.799,310.573z M342.614,355.484l-63.3,63.297
                l-23.272,23.272l-0.037,0.036l-0.036-0.036l-23.272-23.272L169.4,355.484l-21.317-21.319c4.226-0.455,9.045-0.715,14.834-0.715
                c19.493,0,28.183,2.897,39.184,6.563c12.587,4.197,26.856,8.952,53.906,8.952c27.045,0,41.311-4.754,53.897-8.952
                c11.002-3.666,19.69-6.563,39.189-6.563h0.002h0.002c5.79,0,10.612,0.261,14.838,0.717L342.614,355.484z"/>
            </g>
          </g>
          </svg>
